<?xml version="1.0" encoding="utf-8"?>
<!-- Generator: Adobe Illustrator 24.0.0, SVG Export Plug-In . SVG Version: 6.00 Build 0)  -->
<svg version="1.1" id="Layer_1" xmlns="http://www.w3.org/2000/svg" xmlns:xlink="http://www.w3.org/1999/xlink" x="0px" y="0px"
	 viewBox="0 0 256 256" enable-background="new 0 0 256 256" xml:space="preserve">
<g>
</g>
<g>
	<path fill="#F0C020" d="M138.344,155.697c-3.961-1.309-8.051-2.453-10.348-12.345c-2.115,9.112-5.504,10.745-10.348,12.345
		c7.9,2.61,9.092,6.933,10.348,12.345C130.161,158.712,133.742,157.218,138.344,155.697z"/>
	<path d="M125.406,168.644c-1.147-4.945-1.905-8.212-8.591-10.421c-2.43-0.803-2.424-4.25,0-5.051
		c4.025-1.33,6.684-2.209,8.591-10.422c0.633-2.73,4.546-2.737,5.181,0c1.95,8.399,4.863,9.193,8.591,10.421
		c2.43,0.803,2.424,4.25,0,5.051c-3.881,1.282-6.686,2.209-8.591,10.421C129.951,171.386,126.043,171.386,125.406,168.644z
		 M123.886,155.758c1.914,1.314,3.222,2.815,4.164,4.403c1.141-2.017,2.462-3.405,3.934-4.439c-1.411-1.01-2.778-2.44-3.977-4.601
		C126.82,153.254,125.434,154.696,123.886,155.758z"/>
	<path fill="#F0C020" d="M92.905,25.458c-3.961-1.309-8.051-2.453-10.348-12.345c-2.115,9.112-5.504,10.745-10.348,12.345
		c7.9,2.61,9.092,6.933,10.348,12.345C84.722,28.474,88.303,26.979,92.905,25.458z"/>
	<path d="M79.967,38.405c-1.147-4.945-1.905-8.212-8.591-10.421c-2.43-0.803-2.424-4.25,0-5.051
		c4.025-1.33,6.684-2.209,8.591-10.422c0.633-2.73,4.546-2.737,5.181,0c1.95,8.399,4.863,9.193,8.591,10.421
		c2.43,0.803,2.424,4.25,0,5.051c-3.881,1.282-6.686,2.209-8.591,10.421C84.512,41.147,80.604,41.148,79.967,38.405z M78.447,25.519
		c1.914,1.314,3.222,2.815,4.164,4.403c1.141-2.017,2.462-3.405,3.934-4.439c-1.411-1.01-2.778-2.44-3.977-4.601
		C81.381,23.015,79.995,24.457,78.447,25.519z"/>
	<path fill="#F0C020" d="M180.582,25.458c-3.961-1.309-8.051-2.453-10.348-12.345c-2.115,9.112-5.504,10.745-10.348,12.345
		c7.9,2.61,9.092,6.933,10.348,12.345C172.399,28.474,175.979,26.979,180.582,25.458z"/>
	<path d="M167.643,38.405c-1.147-4.945-1.905-8.212-8.591-10.421c-2.43-0.803-2.424-4.25,0-5.051
		c4.025-1.33,6.684-2.209,8.591-10.422c0.633-2.73,4.546-2.737,5.181,0c1.95,8.399,4.863,9.193,8.591,10.421
		c2.43,0.803,2.424,4.25,0,5.051c-3.881,1.282-6.686,2.209-8.591,10.421C172.188,41.147,168.28,41.148,167.643,38.405z
		 M166.123,25.519c1.914,1.314,3.222,2.815,4.164,4.403c1.141-2.017,2.462-3.405,3.934-4.439c-1.411-1.01-2.778-2.44-3.977-4.601
		C169.057,23.015,167.672,24.457,166.123,25.519z"/>
	<path fill="#FFB69F" d="M249.807,122.315l-0.358,45.762c0,2.971-1.182,5.812-3.289,7.918l-51.934,51.943
		c-1.863,1.863-2.909,4.39-2.909,7.025v8.072h-50.054v-34.303h0.02c-0.358-10.541,3.656-20.804,11.157-28.306
		c23.782-23.758,18.171-18.151,27.342-27.322c3.666-3.666,9.667-3.646,13.303,0.149c3.568,3.726,3.247,9.599-0.288,13.134
		l-12.936,12.926c-4.024,4.044-3.994,10.611,0.129,14.595c3.974,3.855,10.671,3.557,14.585-0.358l31.872-31.882
		c1.649-1.649,2.573-3.865,2.573-6.19l0.358-33.164c0-5.653,4.58-10.223,10.223-10.223
		C245.236,112.092,249.807,116.662,249.807,122.315z"/>
	<path fill="#FFB69F" d="M114.741,208.733v34.303H64.687v-8.072c0-2.635-1.047-5.162-2.909-7.025L9.844,175.996
		c-2.106-2.106-3.289-4.948-3.289-7.918l-0.358-45.762c0-5.653,4.57-10.223,10.204-10.223c5.643,0,10.223,4.57,10.223,10.223
		l0.358,33.164c0,2.325,0.924,4.54,2.573,6.19l31.872,31.882c3.915,3.915,10.611,4.213,14.585,0.358
		c4.123-3.984,4.153-10.551,0.129-14.595l-12.936-12.926c-3.54-3.54-3.851-9.414-0.288-13.134c3.636-3.795,9.637-3.815,13.303-0.149
		l7.094,7.094l20.248,20.228c7.501,7.501,11.515,17.764,11.157,28.306H114.741z"/>
	<path fill="#13BF6D" d="M162.683,80.22c0,19.154-15.527,34.681-34.681,34.681S93.322,99.374,93.322,80.22
		s34.681-60.627,34.681-60.627S162.683,61.067,162.683,80.22z"/>
	<path fill="#13BF6D" d="M225.633,83.106c0,14.411-11.682,26.093-26.093,26.093s-26.093-11.682-26.093-26.093
		s26.093-45.614,26.093-45.614S225.633,68.695,225.633,83.106z"/>
	<path fill="#13BF6D" d="M82.558,83.106c0,14.411-11.682,26.093-26.093,26.093S30.372,97.517,30.372,83.106
		s26.093-45.614,26.093-45.614S82.558,68.695,82.558,83.106z"/>
	<path fill="#FBE0E2" d="M182.518,240.536c-1.381,0-2.5-1.119-2.5-2.5v-10.828c0-0.663,0.264-1.299,0.732-1.768l57.414-57.416
		l0.245-32.732c0.011-1.374,1.128-2.48,2.5-2.48c0.006,0,0.013,0,0.02,0c1.381,0.011,2.491,1.139,2.48,2.52l-0.257,32.694
		c0,1.333-0.516,2.594-1.451,3.532l-56.684,56.686v9.792C185.018,239.417,183.899,240.536,182.518,240.536z M240.989,127.812
		c-0.006,0-0.013,0-0.02,0c-1.381-0.011-2.491-1.139-2.48-2.52l0.023-3c0.011-1.374,1.128-2.48,2.5-2.48c0.006,0,0.013,0,0.02,0
		c1.381,0.011,2.491,1.139,2.48,2.52l-0.023,3C243.478,126.706,242.361,127.812,240.989,127.812z"/>
	<path fill="#FBE0E2" d="M105.948,240.536c-1.38,0-2.499-1.118-2.5-2.499l-0.002-3c-0.001-1.38,1.117-2.5,2.498-2.501
		c0.001,0,0.001,0,0.002,0c1.38,0,2.499,1.118,2.5,2.499l0.002,3c0.001,1.38-1.117,2.5-2.498,2.501
		C105.949,240.536,105.948,240.536,105.948,240.536z M105.939,227.536c-1.38,0-2.499-1.118-2.5-2.498l-0.012-16.605
		c0.221-7.918-2.846-15.008-7.85-20.013l-27.345-27.328c-0.977-0.976-0.977-2.559-0.001-3.535c0.977-0.978,2.56-0.978,3.536-0.001
		l27.345,27.328c6.069,6.07,9.608,14.665,9.313,23.628l0.013,16.522c0.001,1.381-1.117,2.501-2.498,2.502
		C105.94,227.536,105.94,227.536,105.939,227.536z"/>
	<path fill="#76FFBB" d="M115.451,102.435c-1.234-0.619-1.732-2.121-1.113-3.355c0.619-1.234,2.119-1.733,3.355-1.113
		c15.48,7.764,30.61-3.343,30.61-17.746c0-1.619-0.768-5.726-5.907-15.042c-0.667-1.209-0.229-2.73,0.98-3.397
		c1.208-0.666,2.729-0.228,3.396,0.981c4.333,7.853,6.53,13.727,6.53,17.458C153.303,98.39,134.205,111.844,115.451,102.435z
		 M106.739,96.258c-0.753-0.706-1.506-1.462-2.237-2.25c-0.94-1.011-0.882-2.593,0.129-3.533c1.013-0.94,2.595-0.881,3.533,0.13
		c0.653,0.703,1.324,1.377,1.993,2.004c1.008,0.944,1.06,2.526,0.115,3.534C109.327,97.151,107.746,97.201,106.739,96.258z"/>
	<path fill="#76FFBB" d="M193.149,101.74c-1.314-0.422-2.037-1.831-1.614-3.145c0.422-1.315,1.828-2.038,3.146-1.615
		c10.196,3.278,19.515-4.261,19.515-13.875c0-0.932-0.426-3.872-4.368-11.018c-0.666-1.209-0.228-2.729,0.981-3.396
		c1.209-0.667,2.73-0.228,3.397,0.981c3.357,6.086,4.989,10.48,4.989,13.433C219.195,96.102,206.571,106.057,193.149,101.74z
		 M183.709,96.167c-0.784-0.7-1.561-1.462-2.306-2.265c-0.939-1.012-0.881-2.594,0.131-3.533c1.013-0.939,2.594-0.88,3.533,0.131
		c0.64,0.689,1.303,1.341,1.972,1.938c1.03,0.919,1.119,2.5,0.2,3.53C186.32,96.997,184.739,97.086,183.709,96.167z"/>
	<path fill="#76FFBB" d="M50.074,101.74c-1.314-0.422-2.037-1.831-1.614-3.145c0.423-1.315,1.829-2.038,3.146-1.615
		c10.196,3.278,19.515-4.261,19.515-13.875c0-0.932-0.426-3.872-4.368-11.018c-0.666-1.209-0.228-2.729,0.981-3.396
		c1.209-0.667,2.729-0.228,3.397,0.981c3.357,6.086,4.989,10.48,4.989,13.433C76.12,96.102,63.496,106.057,50.074,101.74z
		 M40.634,96.167c-0.784-0.7-1.561-1.462-2.306-2.265c-0.939-1.012-0.881-2.594,0.131-3.533c1.013-0.939,2.593-0.88,3.533,0.131
		c0.64,0.689,1.303,1.341,1.972,1.938c1.03,0.919,1.119,2.5,0.2,3.53C43.245,96.997,41.664,97.086,40.634,96.167z"/>
	<path d="M155.882,173.448c-0.976,0.977-0.973,2.568,0,3.54c1.024,1.004,2.597,0.944,3.54,0l0.01-0.01
		c0.96-0.97,0.96-2.55-0.01-3.53C158.482,172.508,156.833,172.508,155.882,173.448z"/>
	<path d="M148.772,180.698c-6.46,7.4-10.01,16.9-10.01,26.73c0,5.789,0,27.616,0,35.61c0,1.38,1.12,2.5,2.5,2.5s2.5-1.12,2.5-2.5
		c0-7.607,0-27.69,0-35.61c0-8.62,3.11-16.95,8.771-23.44c0.909-1.04,0.8-2.62-0.24-3.53
		C151.292,179.588,149.642,179.698,148.772,180.698z"/>
	<path d="M239.602,109.588c-7,0.01-12.7,5.7-12.72,12.69v0.01l-0.36,33.16v0.03c0,1.66-0.66,3.23-1.84,4.42l-31.87,31.89
		c-2.934,2.934-8.064,3.233-11.08,0.33c-3.126-3.024-3.137-7.981-0.1-11.04l12.93-12.92c4.596-4.615,4.754-12.036,0.33-16.63
		c-4.524-4.728-12.131-4.938-16.88-0.19c-4.606,4.607-8.874,8.873-15.06,15.06c-0.98,0.97-0.98,2.56-0.011,3.53
		c0.95,0.95,2.601,0.95,3.54,0c8.089-8.077,8.4-8.389,15.07-15.06c2.715-2.714,7.101-2.629,9.73,0.12
		c2.625,2.737,2.321,7.048-0.25,9.64l-12.94,12.92c-5.14,5.161-4.833,13.328,0.16,18.16c4.989,4.836,13.229,4.45,18.09-0.39
		l31.87-31.88c2.13-2.12,3.3-4.94,3.31-7.93l0.36-33.17v-0.02c0-4.25,3.47-7.72,7.72-7.73c4.24,0.01,7.7,3.48,7.7,7.73l-0.35,45.74
		c-0.011,2.33-0.91,4.52-2.561,6.17l-51.93,51.94c-2.351,2.35-3.641,5.47-3.641,8.8v8.07c0,1.38,1.12,2.5,2.5,2.5
		c1.37,0,2.49-1.12,2.49-2.5v-8.07c0-1.99,0.78-3.86,2.181-5.26l51.939-51.94c2.59-2.6,4.021-6.04,4.021-9.69l0.35-45.74
		C252.302,115.309,246.612,109.599,239.602,109.588z"/>
	<path d="M4.056,168.078c0,3.654,1.428,7.094,4.021,9.686l51.934,51.943c1.403,1.404,2.177,3.271,2.177,5.257v8.072
		c0,1.381,1.119,2.5,2.5,2.5s2.5-1.119,2.5-2.5v-8.072c0-3.322-1.293-6.444-3.642-8.792l-51.934-51.943
		c-1.648-1.648-2.556-3.833-2.556-6.17l-0.358-45.743c0-4.259,3.456-7.723,7.704-7.723c4.259,0,7.724,3.464,7.724,7.75l0.357,33.137
		c0,3,1.174,5.826,3.306,7.958l31.872,31.883c4.936,4.934,13.222,5.111,18.09,0.387c5.118-4.944,5.193-13.104,0.159-18.161
		l-12.936-12.925c-2.669-2.67-2.781-6.994-0.251-9.637c2.659-2.774,7.046-2.796,9.731-0.111l27.342,27.322
		c6.961,6.961,10.761,16.603,10.426,26.453c0,0,0.02-1.204,0.02,34.388c0,1.381,1.119,2.5,2.5,2.5s2.5-1.119,2.5-2.5
		c0-0.189,0.007-34.36-0.012-34.548c0.286-11.114-4.039-21.97-11.899-29.829L77.99,151.337c-4.603-4.604-12.217-4.675-16.877,0.188
		c-4.397,4.592-4.251,12.053,0.327,16.632l12.931,12.92c3.049,3.065,3.024,8.022-0.099,11.037c-2.904,2.818-8.08,2.664-11.076-0.331
		l-31.872-31.882c-1.187-1.188-1.841-2.758-1.841-4.449l-0.357-33.137c0-7.016-5.708-12.723-12.724-12.723
		c-7.005,0-12.704,5.708-12.704,12.743L4.056,168.078z"/>
	<path d="M129.92,17.99c-0.951-1.137-2.885-1.137-3.836,0c-1.439,1.722-35.263,42.396-35.263,62.23
		c0,19.661,15.341,35.796,34.681,37.087v14.071c0,1.38,1.12,2.5,2.5,2.5c1.37,0,2.49-1.12,2.49-2.5v-14.07
		c19.344-1.287,34.69-17.424,34.69-37.088C165.183,60.387,131.36,19.712,129.92,17.99z M130.493,112.295V66.458l11.609-11.609
		c1-1.001,0.95-2.58,0-3.53c-0.939-0.94-2.59-0.95-3.54,0l-8.069,8.076V40.658c0-1.38-1.12-2.5-2.49-2.5c-1.38,0-2.5,1.12-2.5,2.5
		V65.37c-0.001,0.036-0.001,0.071,0,0.107v21.032l-13.13-13.13c-0.94-0.95-2.59-0.95-3.54,0c-0.982,0.981-0.966,2.566,0,3.53
		l16.67,16.661v18.725c-16.579-1.281-29.681-15.172-29.681-32.074c0-15.509,24.98-47.71,32.181-56.669
		c7.2,8.957,32.181,41.152,32.181,56.669C160.183,97.126,147.076,111.019,130.493,112.295z"/>
	<path d="M182.172,61.519c-1.15-0.68-2.75-0.26-3.42,0.89c-3.601,6.19-7.73,14.14-7.811,20.7c0,14.944,11.446,27.213,26.091,28.476
		v19.804c0,1.37,1.13,2.49,2.5,2.49c1.38,0,2.5-1.12,2.5-2.49v-19.802c14.653-1.254,26.1-13.522,26.1-28.477
		c-0.07-13.032-18.265-36.999-26.55-47.07c-0.07-0.09-0.11-0.14-0.12-0.15c-0.96-1.14-2.891-1.14-3.851,0.01
		c-0.34,0.42-3.51,4.23-7.54,9.66c-0.814,1.101-0.614,2.659,0.521,3.5c1.07,0.79,2.7,0.54,3.49-0.52
		c2.384-3.209,4.896-6.404,5.46-7.08c6.562,8.302,23.776,31.085,23.59,41.65c-0.019,12.139-9.283,22.185-21.1,23.453V73.008
		l7.159-7.159c0.994-0.973,0.978-2.573,0.011-3.54c-0.95-0.94-2.601-0.94-3.54,0l-3.63,3.634V54.599c0-1.38-1.12-2.51-2.5-2.51
		c-1.37,0-2.5,1.13-2.5,2.51v31.737l-8.221-8.227c-0.95-0.94-2.59-0.94-3.54,0c-0.974,0.975-0.974,2.565,0,3.54l11.761,11.76v13.15
		c-11.816-1.276-21.063-11.318-21.091-23.451c-0.06-3.78,2.601-10.57,7.12-18.17C183.762,63.749,183.362,62.218,182.172,61.519z"/>
	<path d="M188.352,56.618c0.771-1.14,0.46-2.7-0.67-3.47c-1.11-0.75-2.729-0.44-3.479,0.66c0,0.01,0,0.01,0,0.01
		c-0.767,1.161-0.48,2.676,0.67,3.47C186.069,58.086,187.6,57.724,188.352,56.618z"/>
	<path d="M56.462,133.878c1.38,0,2.5-1.12,2.5-2.5v-19.793c14.503-1.246,26.08-13.368,26.1-28.477
		c-0.1-13.024-18.304-37.08-26.58-47.1c-0.06-0.07-0.09-0.11-0.1-0.12c-0.96-1.14-2.89-1.14-3.84,0l-0.01,0.02
		c-0.58,0.69-3.65,4.42-7.54,9.65c-0.82,1.1-0.591,2.67,0.52,3.5c1.07,0.79,2.71,0.54,3.5-0.52c2.331-3.145,4.886-6.405,5.45-7.08
		c6.56,8.279,23.786,31.081,23.6,41.65c-0.027,12.136-9.279,22.181-21.1,23.452V73.007l7.979-7.989c0.98-0.97,0.98-2.56,0-3.53
		c-0.939-0.95-2.59-0.95-3.529,0l-4.45,4.45v-11.35c0-1.37-1.12-2.49-2.5-2.49s-2.5,1.12-2.5,2.49v31.744l-8.23-8.224
		c-0.939-0.94-2.59-0.94-3.529,0c-0.987,0.985-0.987,2.554,0,3.54l11.76,11.76v13.152c-11.813-1.272-21.072-11.316-21.09-23.452
		c-0.061-3.78,2.6-10.57,7.12-18.17c0.689-1.19,0.3-2.72-0.891-3.42c-1.149-0.68-2.75-0.25-3.42,0.89
		c-3.6,6.19-7.74,14.14-7.81,20.7c0,15.052,11.533,27.226,26.09,28.477v19.793C53.962,132.758,55.083,133.878,56.462,133.878z"/>
	<path d="M45.272,56.618c0.771-1.14,0.471-2.7-0.67-3.47c-1.109-0.75-2.729-0.43-3.47,0.67c-0.757,1.095-0.518,2.663,0.67,3.47
		C42.909,58.043,44.472,57.794,45.272,56.618z"/>
</g>
</svg>
